<?xml version="1.0" standalone="no"?>
<!DOCTYPE svg PUBLIC "-//W3C//DTD SVG 20010904//EN"
 "http://www.w3.org/TR/2001/REC-SVG-20010904/DTD/svg10.dtd">
<svg version="1.0" xmlns="http://www.w3.org/2000/svg"
 width="1024.000000pt" height="1024.000000pt" viewBox="0 0 1024.000000 1024.000000"
 preserveAspectRatio="xMidYMid meet">

<g transform="translate(0.000000,1024.000000) scale(0.100000,-0.100000)"
fill="#000000" stroke="none">
<path d="M3554 7377 c-79 -39 -125 -85 -170 -174 l-29 -58 -1 -1135 c-1 -624
-2 -1392 -3 -1706 -2 -389 1 -585 9 -612 15 -58 88 -162 135 -194 63 -43 130
-62 220 -62 114 0 168 21 257 101 40 36 75 70 77 76 2 7 20 46 40 87 l36 75 5
585 c3 322 2 636 -3 698 -11 164 -12 435 -3 1220 7 531 6 707 -4 755 -26 136
-134 280 -255 342 -49 25 -73 30 -149 33 -87 3 -94 2 -162 -31z"/>
<path d="M6409 7396 c-110 -42 -195 -119 -243 -219 -52 -107 -56 -143 -56
-517 1 -190 5 -448 10 -575 19 -456 22 -817 11 -1005 -17 -279 -26 -1211 -12
-1285 27 -141 118 -265 239 -326 63 -32 73 -34 167 -34 89 0 106 3 157 28 110
54 193 174 213 307 6 46 7 664 1 2370 -4 939 -4 945 -25 1010 -40 118 -106
194 -206 236 -54 22 -208 29 -256 10z"/>
<path d="M2804 7026 c-56 -26 -117 -90 -145 -152 -18 -40 -19 -93 -16 -1465
l2 -1424 27 -46 c68 -115 181 -164 290 -125 57 21 124 84 152 146 l25 55 2
1417 1 1418 -26 54 c-34 69 -81 111 -148 131 -70 21 -104 19 -164 -9z"/>
<path d="M7299 7041 c-44 -14 -73 -32 -112 -70 -77 -73 -71 64 -75 -1491 -2
-767 -3 -1422 -2 -1455 1 -74 20 -115 77 -165 125 -110 323 -54 383 108 20 52
20 73 18 1200 -1 631 -2 1176 -2 1212 0 36 1 153 3 260 4 223 -3 258 -67 323
-64 67 -157 99 -223 78z"/>
<path d="M2140 6661 c-84 -17 -156 -76 -195 -158 -26 -55 -30 -138 -10 -213
32 -119 35 -144 47 -385 15 -276 16 -806 2 -1042 -9 -149 -12 -165 -34 -195
-22 -29 -25 -45 -28 -141 -6 -193 48 -279 201 -317 101 -26 226 30 273 122
l27 53 -2 1043 c-1 1014 -1 1044 -20 1081 -31 59 -69 100 -120 125 -56 29 -95
36 -141 27z"/>
<path d="M7972 6649 c-19 -6 -53 -30 -77 -53 -84 -85 -77 21 -78 -1165 -1
-1007 -1 -1058 17 -1091 43 -81 103 -118 206 -127 61 -5 75 -3 124 21 65 32
101 72 116 128 12 43 15 242 4 260 -7 10 -15 72 -33 253 -20 195 -31 701 -22
960 8 202 15 273 35 370 42 198 32 302 -37 374 -65 68 -165 96 -255 70z"/>
<path d="M1606 5995 c-47 -16 -100 -66 -129 -120 -22 -39 -22 -48 -22 -460 l0
-420 28 -52 c32 -62 82 -99 150 -112 52 -9 115 0 127 20 28 45 18 1111 -11
1145 -15 18 -92 18 -143 -1z"/>
<path d="M8435 5992 c-8 -5 -11 -193 -10 -587 l0 -580 63 -3 c46 -2 79 3 120
18 72 27 84 38 118 108 35 74 38 140 27 557 -8 298 -10 323 -30 361 -25 47
-82 101 -129 120 -35 15 -142 19 -159 6z"/>
<path d="M4369 5853 l-135 -4 3 -182 c2 -100 6 -300 9 -444 l6 -263 422 0
c231 0 621 -1 866 -2 l445 -3 -1 40 c-1 22 -5 223 -10 446 l-7 406 -141 6
c-135 7 -1173 6 -1457 0z"/>
</g>
</svg>
